<svg width="36" height="26" viewBox="0 0 36 26" fill="none" xmlns="http://www.w3.org/2000/svg">
<path d="M1.8 0C0.80589 0 0 0.80586 0 1.8C0 2.79408 0.80589 3.6 1.8 3.6H34.2C35.1941 3.6 36 2.79408 36 1.8C36 0.80586 35.1941 0 34.2 0H1.8ZM1.8 10.8C0.80589 10.8 0 11.6059 0 12.6C0 13.5941 0.80589 14.4 1.8 14.4H34.2C35.1941 14.4 36 13.5941 36 12.6C36 11.6059 35.1941 10.8 34.2 10.8H1.8ZM1.8 21.6C0.80589 21.6 0 22.4059 0 23.4C0 24.3941 0.80589 25.2 1.8 25.2H34.2C35.1941 25.2 36 24.3941 36 23.4C36 22.4059 35.1941 21.6 34.2 21.6H1.8Z" fill="#0066FF"/>
</svg>
